<svg width="68" height="68" viewBox="0 0 68 68" fill="none" xmlns="http://www.w3.org/2000/svg">
<g filter="url(#filter0_dd_94_221768)">
<path d="M34.25 3C49.7138 3 62.25 15.5342 62.25 30.9958C62.25 46.4574 49.7138 58.9917 34.25 58.9917C31.1374 58.9917 28.0967 58.4824 25.2231 57.5045C22.5838 56.6063 19.751 56.1846 17.0529 56.8869L9.23306 58.9225C7.96108 59.254 6.66132 58.4914 6.33002 57.2195C6.22757 56.8265 6.22754 56.4135 6.32994 56.0202L8.36251 48.2133C9.06585 45.5119 8.64221 42.6755 7.74142 40.0334C6.7607 37.1568 6.25 34.1124 6.25 30.9958C6.25 15.5342 18.786 3 34.25 3Z" fill="url(#paint0_linear_94_221768)"/>
<path d="M8.98115 57.9548L8.98089 57.9548C8.24342 58.147 7.48981 57.7049 7.29773 56.9675L7.29769 56.9673C7.23835 56.7397 7.23829 56.5003 7.29768 56.2721C7.29768 56.2721 7.29768 56.2721 7.29769 56.2721L9.33025 48.4653C10.1012 45.5042 9.62355 42.455 8.68793 39.7107C7.74266 36.938 7.25 34.0027 7.25 30.9958C7.25 16.0866 19.3382 4 34.25 4C49.1617 4 61.25 16.0866 61.25 30.9958C61.25 45.9049 49.1617 57.9917 34.25 57.9917C31.2469 57.9917 28.3151 57.5004 25.5453 56.5578C22.8038 55.6249 19.7584 55.1493 16.801 55.9192L8.98115 57.9548Z" stroke="url(#paint1_linear_94_221768)" stroke-width="2"/>
<path d="M8.98115 57.9548L8.98089 57.9548C8.24342 58.147 7.48981 57.7049 7.29773 56.9675L7.29769 56.9673C7.23835 56.7397 7.23829 56.5003 7.29768 56.2721C7.29768 56.2721 7.29768 56.2721 7.29769 56.2721L9.33025 48.4653C10.1012 45.5042 9.62355 42.455 8.68793 39.7107C7.74266 36.938 7.25 34.0027 7.25 30.9958C7.25 16.0866 19.3382 4 34.25 4C49.1617 4 61.25 16.0866 61.25 30.9958C61.25 45.9049 49.1617 57.9917 34.25 57.9917C31.2469 57.9917 28.3151 57.5004 25.5453 56.5578C22.8038 55.6249 19.7584 55.1493 16.801 55.9192L8.98115 57.9548Z" stroke="url(#paint2_radial_94_221768)" stroke-opacity="0.6" stroke-width="2"/>
<path d="M8.98115 57.9548L8.98089 57.9548C8.24342 58.147 7.48981 57.7049 7.29773 56.9675L7.29769 56.9673C7.23835 56.7397 7.23829 56.5003 7.29768 56.2721C7.29768 56.2721 7.29768 56.2721 7.29769 56.2721L9.33025 48.4653C10.1012 45.5042 9.62355 42.455 8.68793 39.7107C7.74266 36.938 7.25 34.0027 7.25 30.9958C7.25 16.0866 19.3382 4 34.25 4C49.1617 4 61.25 16.0866 61.25 30.9958C61.25 45.9049 49.1617 57.9917 34.25 57.9917C31.2469 57.9917 28.3151 57.5004 25.5453 56.5578C22.8038 55.6249 19.7584 55.1493 16.801 55.9192L8.98115 57.9548Z" stroke="url(#paint3_radial_94_221768)" stroke-opacity="0.8" stroke-width="2"/>
</g>
<g clip-path="url(#clip0_94_221768)" filter="url(#filter1_i_94_221768)">
<g clip-path="url(#clip1_94_221768)">
<path d="M46.8489 35.7925C46.8489 36.1198 46.8311 36.4452 46.7957 36.7659C46.5847 38.7221 45.741 40.4911 44.4708 41.8592C44.6308 41.6808 44.775 41.4893 44.9015 41.2842C44.999 41.1283 45.0858 40.9658 45.1591 40.7963C45.1857 40.7406 45.2099 40.6826 45.23 40.625C45.2543 40.5692 45.2743 40.5112 45.2921 40.4536C45.3121 40.4002 45.3299 40.3445 45.3453 40.2888C45.3607 40.2307 45.3765 40.1731 45.3896 40.1151C45.3919 40.1085 45.3943 40.1015 45.3961 40.0949C45.4097 40.0369 45.4204 39.9793 45.4316 39.9212C45.4428 39.8613 45.454 39.8009 45.4629 39.741C45.4629 39.7386 45.4629 39.7386 45.4629 39.7368C45.4717 39.681 45.4783 39.6253 45.4829 39.5673C45.4965 39.4357 45.503 39.3046 45.503 39.1707C45.503 38.4178 45.2963 37.7112 44.9346 37.11C44.8525 36.9696 44.7615 36.8361 44.6616 36.7092C44.544 36.5575 44.4176 36.4152 44.2799 36.2836C43.9378 35.9517 43.5384 35.6796 43.0964 35.4881C42.9056 35.4034 42.7058 35.3346 42.5014 35.2831C42.4991 35.2831 42.4949 35.2807 42.4926 35.2807L42.4216 35.2564L41.387 34.9001V34.8977L38.6804 33.9641C38.6715 33.9617 38.6603 33.9617 38.6538 33.9599L38.4849 33.8976C37.9407 33.6836 37.4899 33.2828 37.2081 32.7725L36.2201 30.2436L35.0875 27.3472L34.8701 26.7882L34.8145 26.6744C34.7525 26.5227 34.7189 26.3579 34.7189 26.1865C34.7189 26.142 34.7189 26.0975 34.7235 26.0573C34.7879 25.42 35.3274 24.9209 35.9803 24.9209C36.1534 24.9209 36.32 24.9565 36.4712 25.0211L41.5149 27.616L42.5098 28.1263C43.0362 28.4405 43.5267 28.8104 43.9752 29.2271C45.6005 30.7245 46.6664 32.823 46.8265 35.1693C46.84 35.3762 46.8489 35.5832 46.8489 35.7925Z" fill="url(#paint4_linear_94_221768)"/>
<path d="M45.5011 39.1702C45.5011 39.4286 45.4768 39.6782 45.432 39.9212C45.4185 39.9858 45.4054 40.0504 45.39 40.1151C45.3611 40.2307 45.3303 40.3421 45.2925 40.4536C45.2724 40.5116 45.2523 40.5692 45.2304 40.6249C45.208 40.683 45.1837 40.7387 45.1595 40.7963C45.0862 40.9658 44.9994 41.1283 44.9019 41.2842C44.7754 41.4893 44.6307 41.6808 44.4711 41.8592C43.7361 42.6748 41.24 44.1291 40.3202 44.72L38.278 45.972C36.7819 46.8972 35.367 47.5518 33.5839 47.5963C33.4994 47.5986 33.4173 47.6009 33.3351 47.6009C33.2199 47.6009 33.1065 47.5986 32.9931 47.5944C29.9733 47.4787 27.3394 45.8521 25.8209 43.4483C25.126 42.3499 24.6664 41.0889 24.511 39.7344C24.8372 41.5857 26.4453 42.9895 28.3838 42.9895C29.0633 42.9895 29.7008 42.8181 30.258 42.5147C30.2622 42.5123 30.2668 42.51 30.2715 42.5081L30.4712 42.3878L31.2841 41.9065L32.3187 41.2917V41.2627L32.4522 41.1826L41.7099 35.6796L42.4225 35.2563L42.4934 35.2807C42.4958 35.2807 42.5 35.283 42.5023 35.283C42.7067 35.3341 42.9064 35.4034 43.0973 35.4881C43.5392 35.6796 43.9387 35.9517 44.2807 36.2836C44.4184 36.4152 44.5449 36.5575 44.6625 36.7092C44.7623 36.8361 44.8533 36.97 44.9355 37.11C45.2943 37.7108 45.5011 38.4173 45.5011 39.1702Z" fill="url(#paint5_linear_94_221768)"/>
<path d="M32.3211 20.8052L32.3179 41.2907L31.2833 41.906L30.4699 42.3868L30.2697 42.5086C30.2664 42.5086 30.2603 42.5118 30.2575 42.5146C29.6994 42.8162 29.0619 42.9899 28.382 42.9899C26.443 42.9899 24.8377 41.5862 24.5096 39.7348C24.4942 39.6496 24.4826 39.5611 24.4732 39.4759C24.4611 39.3144 24.4522 39.1561 24.449 38.9946V15.9395C24.449 15.2119 25.0379 14.6182 25.7659 14.6182C26.0389 14.6182 26.2937 14.7034 26.5032 14.8434L30.5301 17.4832C30.5515 17.5015 30.5753 17.5169 30.6001 17.5319C31.6412 18.2445 32.3211 19.4441 32.3211 20.8052Z" fill="url(#paint6_linear_94_221768)"/>
<path opacity="0.15" d="M45.5011 39.1702C45.5011 39.4286 45.4768 39.6782 45.432 39.9212C45.4185 39.9858 45.4054 40.0504 45.39 40.1151C45.3611 40.2307 45.3303 40.3421 45.2925 40.4536C45.2724 40.5116 45.2523 40.5692 45.2304 40.6249C45.208 40.683 45.1837 40.7387 45.1595 40.7963C45.0862 40.9658 44.9994 41.1283 44.9019 41.2842C44.7754 41.4893 44.6312 41.6808 44.4711 41.8592C43.7361 42.6748 41.24 44.1291 40.3202 44.72L38.278 45.972C36.7819 46.8972 35.367 47.5518 33.5839 47.5963C33.4994 47.5986 33.4173 47.6009 33.3351 47.6009C33.2199 47.6009 33.1065 47.5986 32.9931 47.5944C29.9733 47.4787 27.3394 45.8521 25.8209 43.4483C25.126 42.3499 24.6664 41.0889 24.511 39.7344C24.8372 41.5857 26.4453 42.9895 28.3838 42.9895C29.0633 42.9895 29.7008 42.8181 30.258 42.5147C30.2622 42.5123 30.2668 42.51 30.2715 42.5081L30.4712 42.3878L31.2841 41.9065L32.3187 41.2917V41.2627L32.4522 41.1826L41.7099 35.6796L42.4225 35.2563L42.4934 35.2807C42.4958 35.2807 42.5 35.283 42.5023 35.283C42.7067 35.3341 42.9064 35.4034 43.0973 35.4881C43.5392 35.6796 43.9387 35.9517 44.2807 36.2836C44.4184 36.4152 44.5449 36.5575 44.6625 36.7092C44.7623 36.8361 44.8533 36.97 44.9355 37.11C45.2943 37.7108 45.5011 38.4173 45.5011 39.1702Z" fill="url(#paint7_linear_94_221768)"/>
<path opacity="0.1" d="M32.3211 20.8052L32.3179 41.2907L31.2833 41.906L30.4699 42.3868L30.2697 42.5086C30.2664 42.5086 30.2603 42.5118 30.2575 42.5146C29.6994 42.8162 29.0619 42.9899 28.382 42.9899C26.443 42.9899 24.8377 41.5862 24.5096 39.7348C24.4942 39.6496 24.4826 39.5611 24.4732 39.4759C24.4611 39.3144 24.4522 39.1561 24.449 38.9946V15.9395C24.449 15.2119 25.0379 14.6182 25.7659 14.6182C26.0389 14.6182 26.2937 14.7034 26.5032 14.8434L30.5301 17.4832C30.5515 17.5015 30.5753 17.5169 30.6001 17.5319C31.6412 18.2445 32.3211 19.4441 32.3211 20.8052Z" fill="url(#paint8_linear_94_221768)"/>
</g>
</g>
<defs>
<filter id="filter0_dd_94_221768" x="0.65" y="0.2" width="67.2" height="67.2" filterUnits="userSpaceOnUse" color-interpolation-filters="sRGB">
<feFlood flood-opacity="0" result="BackgroundImageFix"/>
<feColorMatrix in="SourceAlpha" type="matrix" values="0 0 0 0 0 0 0 0 0 0 0 0 0 0 0 0 0 0 127 0" result="hardAlpha"/>
<feOffset/>
<feGaussianBlur stdDeviation="1.4"/>
<feColorMatrix type="matrix" values="0 0 0 0 0 0 0 0 0 0 0 0 0 0 0 0 0 0 0.12 0"/>
<feBlend mode="normal" in2="BackgroundImageFix" result="effect1_dropShadow_94_221768"/>
<feColorMatrix in="SourceAlpha" type="matrix" values="0 0 0 0 0 0 0 0 0 0 0 0 0 0 0 0 0 0 127 0" result="hardAlpha"/>
<feOffset dy="2.8"/>
<feGaussianBlur stdDeviation="2.8"/>
<feColorMatrix type="matrix" values="0 0 0 0 0 0 0 0 0 0 0 0 0 0 0 0 0 0 0.14 0"/>
<feBlend mode="normal" in2="effect1_dropShadow_94_221768" result="effect2_dropShadow_94_221768"/>
<feBlend mode="normal" in="SourceGraphic" in2="effect2_dropShadow_94_221768" result="shape"/>
</filter>
<filter id="filter1_i_94_221768" x="17.45" y="14.2002" width="33.6" height="37.8001" filterUnits="userSpaceOnUse" color-interpolation-filters="sRGB">
<feFlood flood-opacity="0" result="BackgroundImageFix"/>
<feBlend mode="normal" in="SourceGraphic" in2="BackgroundImageFix" result="shape"/>
<feColorMatrix in="SourceAlpha" type="matrix" values="0 0 0 0 0 0 0 0 0 0 0 0 0 0 0 0 0 0 127 0" result="hardAlpha"/>
<feOffset dy="4.2"/>
<feGaussianBlur stdDeviation="6.825"/>
<feComposite in2="hardAlpha" operator="arithmetic" k2="-1" k3="1"/>
<feColorMatrix type="matrix" values="0 0 0 0 0.81875 0 0 0 0 0.824081 0 0 0 0 1 0 0 0 0.37 0"/>
<feBlend mode="normal" in2="shape" result="effect1_innerShadow_94_221768"/>
</filter>
<linearGradient id="paint0_linear_94_221768" x1="34.25" y1="3" x2="34.25" y2="59" gradientUnits="userSpaceOnUse">
<stop stop-color="#F9F9F9"/>
<stop offset="1" stop-color="#EDF0F9"/>
</linearGradient>
<linearGradient id="paint1_linear_94_221768" x1="6.46374" y1="69.5" x2="69.3501" y2="60.2323" gradientUnits="userSpaceOnUse">
<stop offset="0.107946" stop-color="#1D6CF2"/>
<stop offset="0.870845" stop-color="#1B4AEF"/>
</linearGradient>
<radialGradient id="paint2_radial_94_221768" cx="0" cy="0" r="1" gradientUnits="userSpaceOnUse" gradientTransform="translate(20.75 53) rotate(14.0362) scale(49.4773)">
<stop stop-color="#0B31A3"/>
<stop offset="1" stop-color="#39A0ED"/>
</radialGradient>
<radialGradient id="paint3_radial_94_221768" cx="0" cy="0" r="1" gradientUnits="userSpaceOnUse" gradientTransform="translate(25.25 23) rotate(-140.774) scale(31.6267)">
<stop stop-color="#00FFF3" stop-opacity="0.77"/>
<stop offset="0.423394" stop-color="#00FFF3" stop-opacity="0.72"/>
<stop offset="1" stop-color="#5BDCD6" stop-opacity="0"/>
</radialGradient>
<linearGradient id="paint4_linear_94_221768" x1="32.9626" y1="28.8944" x2="47.4096" y2="37.2077" gradientUnits="userSpaceOnUse">
<stop stop-color="#37BDFF"/>
<stop offset="0.1832" stop-color="#33BFFD"/>
<stop offset="0.3576" stop-color="#28C5F5"/>
<stop offset="0.528" stop-color="#15D0E9"/>
<stop offset="0.5468" stop-color="#12D1E7"/>
<stop offset="0.5903" stop-color="#1CD2E5"/>
<stop offset="0.7679" stop-color="#42D8DC"/>
<stop offset="0.9107" stop-color="#59DBD6"/>
<stop offset="1" stop-color="#62DCD4"/>
</linearGradient>
<linearGradient id="paint5_linear_94_221768" x1="24.5101" y1="41.4282" x2="45.5009" y2="41.4282" gradientUnits="userSpaceOnUse">
<stop stop-color="#39D2FF"/>
<stop offset="0.1501" stop-color="#38CEFE"/>
<stop offset="0.2931" stop-color="#35C3FA"/>
<stop offset="0.4327" stop-color="#2FB0F3"/>
<stop offset="0.5468" stop-color="#299AEB"/>
<stop offset="0.5827" stop-color="#2692EC"/>
<stop offset="0.7635" stop-color="#1A6CF1"/>
<stop offset="0.909" stop-color="#1355F4"/>
<stop offset="1" stop-color="#104CF5"/>
</linearGradient>
<linearGradient id="paint6_linear_94_221768" x1="28.385" y1="43.2795" x2="28.385" y2="15.1178" gradientUnits="userSpaceOnUse">
<stop stop-color="#1B48EF"/>
<stop offset="0.1221" stop-color="#1C51F0"/>
<stop offset="0.3212" stop-color="#1E69F5"/>
<stop offset="0.5676" stop-color="#2190FB"/>
<stop offset="1" stop-color="#26B8F4"/>
</linearGradient>
<linearGradient id="paint7_linear_94_221768" x1="28.6824" y1="46.626" x2="41.6792" y2="33.6722" gradientUnits="userSpaceOnUse">
<stop stop-color="white"/>
<stop offset="0.3726" stop-color="#FDFDFD"/>
<stop offset="0.5069" stop-color="#F6F6F6"/>
<stop offset="0.6026" stop-color="#EBEBEB"/>
<stop offset="0.68" stop-color="#DADADA"/>
<stop offset="0.7463" stop-color="#C4C4C4"/>
<stop offset="0.805" stop-color="#A8A8A8"/>
<stop offset="0.8581" stop-color="#888888"/>
<stop offset="0.9069" stop-color="#626262"/>
<stop offset="0.9523" stop-color="#373737"/>
<stop offset="0.9926" stop-color="#090909"/>
<stop offset="1"/>
</linearGradient>
<linearGradient id="paint8_linear_94_221768" x1="28.385" y1="14.6182" x2="28.385" y2="42.9896" gradientUnits="userSpaceOnUse">
<stop stop-color="white"/>
<stop offset="0.3726" stop-color="#FDFDFD"/>
<stop offset="0.5069" stop-color="#F6F6F6"/>
<stop offset="0.6026" stop-color="#EBEBEB"/>
<stop offset="0.68" stop-color="#DADADA"/>
<stop offset="0.7463" stop-color="#C4C4C4"/>
<stop offset="0.805" stop-color="#A8A8A8"/>
<stop offset="0.8581" stop-color="#888888"/>
<stop offset="0.9069" stop-color="#626262"/>
<stop offset="0.9523" stop-color="#373737"/>
<stop offset="0.9926" stop-color="#090909"/>
<stop offset="1"/>
</linearGradient>
<clipPath id="clip0_94_221768">
<rect width="33.6" height="33.6" fill="white" transform="translate(17.45 14.2002)"/>
</clipPath>
<clipPath id="clip1_94_221768">
<rect width="22.4" height="33.6" fill="white" transform="translate(24.45 14.2002)"/>
</clipPath>
</defs>
</svg>
